HIERARCHY
ROOT Hips
{
 OFFSET 0.000000 0.000000 0.000000
 CHANNELS 6 Xposition Yposition Zposition Yrotation Xrotation Zrotation
 JOINT Chest
 {
  OFFSET 0.000000 9.585900 0.002600
  CHANNELS 3 Yrotation Xrotation Zrotation
  JOINT Chest2
  {
   OFFSET 0.000000 9.601200 -0.005300
   CHANNELS 3 Yrotation Xrotation Zrotation
   JOINT Chest3
   {
    OFFSET 0.000000 9.561800 0.000000
    CHANNELS 3 Yrotation Xrotation Zrotation
    JOINT Chest4
    {
     OFFSET 0.000000 9.552100 0.000000
     CHANNELS 3 Yrotation Xrotation Zrotation
     JOINT Neck
     {
      OFFSET 0.000000 14.453000 0.000000
      CHANNELS 3 Yrotation Xrotation Zrotation
      JOINT Head
      {
       OFFSET 0.000000 8.936500 -0.011300
       CHANNELS 3 Yrotation Xrotation Zrotation
       End Site
       {
        OFFSET 0.000000 17.073600 -0.006000
       }
      }
     }
     JOINT RightCollar
     {
      OFFSET -2.921100 9.558500 0.000000
      CHANNELS 3 Yrotation Xrotation Zrotation
      JOINT RightShoulder
      {
       OFFSET -13.519700 0.000000 0.000000
       CHANNELS 3 Yrotation Xrotation Zrotation
       JOINT RightElbow
       {
        OFFSET 0.000000 -29.696600 0.000000
        CHANNELS 3 Yrotation Xrotation Zrotation
        JOINT RightWrist
        {
         OFFSET 0.000000 -24.004700 0.000000
         CHANNELS 3 Yrotation Xrotation Zrotation
         End Site
         {
          OFFSET 0.000000 -17.728500 0.000000
         }
        }
       }
      }
     }
     JOINT LeftCollar
     {
      OFFSET 2.921100 9.558500 0.000000
      CHANNELS 3 Yrotation Xrotation Zrotation
      JOINT LeftShoulder
      {
       OFFSET 13.519700 0.000000 0.000000
       CHANNELS 3 Yrotation Xrotation Zrotation
       JOINT LeftElbow
       {
        OFFSET 0.000000 -29.696600 0.000000
        CHANNELS 3 Yrotation Xrotation Zrotation
        JOINT LeftWrist
        {
         OFFSET 0.000000 -24.004700 0.000000
         CHANNELS 3 Yrotation Xrotation Zrotation
         End Site
         {
          OFFSET 0.000000 -17.728500 0.000000
         }
        }
       }
      }
     }
    }
   }
  }
 }
 JOINT RightHip
 {
  OFFSET -7.771700 -0.012900 -0.001300
  CHANNELS 3 Yrotation Xrotation Zrotation
  JOINT RightKnee
  {
   OFFSET 0.000000 -40.869800 0.001200
   CHANNELS 3 Yrotation Xrotation Zrotation
   JOINT RightAnkle
   {
    OFFSET 0.000000 -39.717900 0.002100
    CHANNELS 3 Yrotation Xrotation Zrotation
    JOINT RightToe
    {
     OFFSET 0.000000 -4.965400 11.033500
     CHANNELS 3 Yrotation Xrotation Zrotation
     End Site
     {
      OFFSET 0.000000 -1.423100 5.872300
     }
    }
   }
  }
 }
 JOINT LeftHip
 {
  OFFSET 7.771700 -0.012900 -0.001300
  CHANNELS 3 Yrotation Xrotation Zrotation
  JOINT LeftKnee
  {
   OFFSET 0.000000 -40.869800 0.001200
   CHANNELS 3 Yrotation Xrotation Zrotation
   JOINT LeftAnkle
   {
    OFFSET 0.000000 -39.717900 0.002100
    CHANNELS 3 Yrotation Xrotation Zrotation
    JOINT LeftToe
    {
     OFFSET 0.000000 -4.965400 11.033500
     CHANNELS 3 Yrotation Xrotation Zrotation
     End Site
     {
      OFFSET 0.000000 -1.423100 5.872300
     }
    }
   }
  }
 }
}
MOTION
Frames: 14
Frame Time: 0.008333
-39.683254 62.045729 13.213597 176.643745 -51.857842 -0.640705 3.506544 27.470157 0.682222 0.523466 4.780502 0.105564 0.832252 7.549701 0.188645 2.617787 22.212770 0.904281 1.925916 15.160533 2.114715 2.815122 -7.690295 3.252110 7.659171 4.738616 5.494680 1.373463 -10.729013 -15.363899 -87.617517 -53.568246 132.375281 6.109465 0.481192 -4.734145 -10.952657 0.818961 -2.244303 -5.598936 -7.007096 21.375983 94.132967 -62.652263 -129.675564 7.795848 2.175352 -10.193384 3.092036 -15.079290 -5.910224 -1.211698 60.924032 -5.038888 1.660741 -6.812012 10.388434 0.209034 -0.494278 0.103688 -3.443458 -12.277505 2.453548 25.837889 76.683714 26.280610 0.548525 -11.766073 -3.743419 0.216784 0.623687 0.099020
-39.684243 62.044358 13.215340 176.638609 -51.831813 -0.641382 3.511920 27.451753 0.684317 0.523391 4.776706 0.106543 0.835266 7.576234 0.181422 2.618652 22.200992 0.905350 1.926543 15.133629 2.085322 2.817386 -7.712001 3.243820 7.662351 4.718830 5.496879 1.380056 -10.732615 -15.365588 -87.600178 -53.577026 132.353323 6.125415 0.528557 -4.743280 -10.958763 0.802388 -2.236103 -5.601442 -7.015766 21.381581 94.223341 -62.933222 -129.611982 7.657687 2.288372 -10.203453 3.099223 -15.103843 -5.902961 -1.215165 60.917976 -5.043704 1.655396 -6.808045 10.392316 0.211167 -0.492100 0.102252 -3.441150 -12.303567 2.459112 25.837999 76.683047 26.282313 0.549096 -11.771166 -3.746162 0.216812 0.629916 0.100867
-39.685441 62.044469 13.215851 176.640353 -51.816483 -0.646337 3.512725 27.444211 0.685314 0.524370 4.785219 0.103803 0.835130 7.564000 0.184983 2.623105 22.231385 0.892914 1.926750 15.094548 2.081863 2.835703 -7.774517 3.146407 7.672589 4.679237 5.493979 1.405496 -10.748404 -15.367307 -87.546957 -53.611705 132.280946 6.118394 0.498607 -4.764683 -10.983377 0.775697 -2.225716 -5.621838 -7.046901 21.407610 94.325759 -63.234634 -129.506785 7.526261 2.395847 -10.212579 3.100302 -15.116786 -5.901241 -1.214676 60.912850 -5.041742 1.663563 -6.803483 10.393089 0.209396 -0.489753 0.098705 -3.442604 -12.319796 2.461528 25.843398 76.683792 26.290187 0.550332 -11.770794 -3.747123 0.216167 0.629384 0.099609
-39.686642 62.044175 13.216538 176.644666 -51.797578 -0.653843 3.516273 27.458986 0.684948 0.521343 4.767952 0.106130 0.835611 7.564072 0.183663 2.626558 22.229902 0.889478 1.926600 15.074982 2.071617 2.855358 -7.836669 3.046660 7.683305 4.661175 5.492656 1.441624 -10.769367 -15.377131 -87.459643 -53.685534 132.181794 6.149392 0.560757 -4.807098 -11.031231 0.787108 -2.237752 -5.650126 -7.110194 21.461988 94.458656 -63.546935 -129.381752 7.408195 2.498416 -10.219310 3.099848 -15.134503 -5.895465 -1.219711 60.910034 -5.047417 1.661584 -6.797742 10.392276 0.211694 -0.489997 0.099695 -3.447447 -12.341594 2.467369 25.845427 76.688357 26.290403 0.552652 -11.768006 -3.745302 0.214800 0.626210 0.098338
-39.688247 62.044004 13.216853 176.651646 -51.779421 -0.661329 3.514117 27.452650 0.685343 0.524659 4.773344 0.103295 0.836140 7.562938 0.182953 2.623376 22.228855 0.887421 1.928782 15.040666 2.002737 2.862838 -7.876698 3.028575 7.692182 4.645703 5.487318 1.519749 -10.819277 -15.403470 -87.419679 -53.682277 132.059529 6.185347 0.644909 -4.823274 -11.058132 0.787244 -2.244559 -5.652827 -7.140360 21.490712 94.685481 -63.882315 -129.375036 7.308498 2.598908 -10.217834 3.096399 -15.152234 -5.891635 -1.227383 60.908953 -5.059237 1.669127 -6.792599 10.389106 0.206542 -0.492839 0.104159 -3.450457 -12.363242 2.472366 25.841046 76.693215 26.285024 0.552569 -11.763517 -3.743092 0.217847 0.621136 0.099224
-39.690099 62.044667 13.216161 176.658167 -51.767757 -0.667014 3.507254 27.456498 0.679944 0.528433 4.772616 0.105394 0.836674 7.563020 0.181367 2.614882 22.230550 0.881986 1.932974 15.013755 1.971806 2.881984 -7.926519 2.968996 7.717369 4.633587 5.471621 1.540496 -10.851724 -15.401568 -87.390633 -53.690694 131.994734 6.195666 0.666595 -4.832790 -11.077696 0.783974 -2.253149 -5.647195 -7.167726 21.516702 94.939305 -64.220331 -129.394763 7.220606 2.694174 -10.210794 3.094280 -15.161739 -5.891442 -1.229611 60.908665 -5.060325 1.665937 -6.793527 10.387087 0.208061 -0.490766 0.104058 -3.451727 -12.375491 2.475802 25.830020 76.695320 26.275272 0.542666 -11.763134 -3.740212 0.222639 0.619452 0.099745
-39.692689 62.046087 13.214440 176.666177 -51.762258 -0.669410 3.493823 27.470829 0.665579 0.531127 4.769116 0.107277 0.836189 7.563206 0.180472 2.606904 22.231015 0.876704 1.938821 14.985988 1.940602 2.904386 -7.977956 2.908167 7.737187 4.618339 5.469480 1.571172 -10.882112 -15.416768 -87.342813 -53.723744 131.929393 6.229818 0.725470 -4.852002 -11.089516 0.780124 -2.261538 -5.631442 -7.186791 21.536986 95.213605 -64.551712 -129.441255 7.138791 2.781437 -10.204674 3.090796 -15.165685 -5.895333 -1.241667 60.911470 -5.073708 1.671690 -6.795249 10.387563 0.204027 -0.492647 0.103704 -3.453915 -12.381213 2.474532 25.821976 76.697222 26.266037 0.534078 -11.760352 -3.738473 0.227526 0.615165 0.102187
-39.689556 62.046605 13.213430 176.666669 -51.750529 -0.700502 3.505602 27.464896 0.694775 0.527839 4.777272 0.102782 0.834352 7.563575 0.179038 2.602837 22.231686 0.874739 1.949709 14.963148 1.925584 2.924010 -8.037586 2.830424 7.759081 4.600578 5.467057 1.600557 -10.911817 -15.433333 -87.307556 -53.750512 131.871771 6.262765 0.790518 -4.857471 -11.099530 0.777464 -2.270237 -5.611565 -7.207599 21.556258 95.496968 -64.868826 -129.499466 7.066703 2.863900 -10.198553 3.079996 -15.177173 -5.864922 -1.244452 60.910306 -5.075468 1.692361 -6.811116 10.391704 0.183286 -0.480929 0.092946 -3.460520 -12.393078 2.509229 25.814679 76.707218 26.257481 0.559012 -11.748541 -3.730466 0.202593 0.597878 0.091422
-39.690831 62.046365 13.212346 176.667696 -51.733812 -0.705745 3.502603 27.455628 0.694166 0.523681 4.784862 0.099676 0.833723 7.563684 0.178174 2.596822 22.234525 0.869962 1.962428 14.938445 1.910847 2.940462 -8.101184 2.752191 7.782364 4.580155 5.463274 1.629787 -10.939906 -15.446532 -87.269721 -53.777807 131.809971 6.282238 0.826970 -4.854369 -11.111010 0.775642 -2.276819 -5.565295 -7.249738 21.580212 95.744580 -65.158986 -129.551810 7.005184 2.944631 -10.190582 3.080807 -15.192447 -5.863629 -1.246484 60.909912 -5.074124 1.696420 -6.815029 10.391429 0.179547 -0.478514 0.090264 -3.461553 -12.410859 2.516930 25.808414 76.711980 26.251249 0.555114 -11.749845 -3.730807 0.204773 0.595250 0.093243
-39.692738 62.046662 13.210470 176.676921 -51.722006 -0.713337 3.492191 27.458422 0.687715 0.517086 4.796775 0.095367 0.830104 7.566182 0.175452 2.598430 22.224803 0.866462 1.965139 14.906744 1.880638 2.963390 -8.162069 2.688191 7.804395 4.559714 5.459678 1.659279 -10.966777 -15.457210 -87.243262 -53.801307 131.753875 6.299671 0.865961 -4.844655 -11.121106 0.774270 -2.278780 -5.536072 -7.270225 21.592096 96.053656 -65.434953 -129.652416 6.950143 3.022272 -10.183482 3.077182 -15.201691 -5.864594 -1.244868 60.910549 -5.071769 1.692522 -6.819375 10.390354 0.180191 -0.476715 0.091888 -3.465660 -12.422950 2.519714 25.829758 76.713273 26.271510 0.545295 -11.754428 -3.730726 0.208357 0.595985 0.095416
-39.694096 62.047180 13.208212 176.674280 -51.712787 -0.714632 3.489070 27.462651 0.684417 0.521318 4.786756 0.097740 0.829791 7.566492 0.175027 2.592995 22.230971 0.861976 1.963104 14.882087 1.847416 2.982638 -8.221722 2.626338 7.817395 4.551679 5.456141 1.679550 -10.987489 -15.464728 -87.223154 -53.826791 131.728965 6.315899 0.904545 -4.849964 -11.125150 0.773541 -2.278572 -5.498174 -7.292200 21.601579 96.326782 -65.677220 -129.747018 6.898203 3.093630 -10.179396 3.081126 -15.208809 -5.862246 -1.239191 60.910767 -5.066672 1.691180 -6.823050 10.393606 0.178821 -0.476377 0.088954 -3.463105 -12.431842 2.526984 25.842786 76.718168 26.279501 0.545046 -11.761045 -3.726054 0.204372 0.596168 0.095207
-39.695792 62.047358 13.206074 176.679893 -51.701409 -0.720257 3.476443 27.480068 0.672809 0.524516 4.775429 0.099175 0.827975 7.568579 0.173176 2.595217 22.222701 0.861645 1.958829 14.859644 1.813031 3.006134 -8.286450 2.564192 7.830775 4.543566 5.452339 1.682104 -10.997046 -15.463639 -87.217302 -53.877333 131.742029 6.295030 0.901625 -4.872245 -11.126788 0.771695 -2.277306 -5.460318 -7.314285 21.609775 96.586923 -65.891253 -129.835584 6.845096 3.157608 -10.179538 3.083370 -15.216921 -5.864391 -1.237914 60.910101 -5.060518 1.690480 -6.826463 10.395945 0.176577 -0.475552 0.085690 -3.465358 -12.443363 2.531865 25.845591 76.721323 26.279867 0.541042 -11.764447 -3.724382 0.207088 0.595993 0.096829
-39.697474 62.046501 13.204747 176.684559 -51.682333 -0.725288 3.471945 27.465273 0.671459 0.515286 4.807527 0.090091 0.830054 7.550927 0.176427 2.587689 22.224467 0.855370 1.958429 14.812911 1.744473 3.031316 -8.340299 2.533194 7.850991 4.524665 5.449272 1.712537 -11.018239 -15.479668 -87.217311 -53.884360 131.716427 6.315068 0.965426 -4.863678 -11.127315 0.772988 -2.275514 -5.361911 -7.354335 21.616567 96.814970 -66.071948 -129.947173 6.789370 3.212759 -10.185373 3.085100 -15.233810 -5.865339 -1.235040 60.909221 -5.055285 1.688082 -6.829000 10.398354 0.176341 -0.473901 0.083854 -3.466607 -12.463137 2.536244 25.842404 76.724323 26.277173 0.537435 -11.768573 -3.723893 0.209847 0.597170 0.097137
-39.698925 62.046791 13.202601 176.684311 -51.672187 -0.727325 3.470925 27.472525 0.667300 0.511833 4.809378 0.089506 0.832614 7.551879 0.176010 2.585408 22.226582 0.853649 1.962511 14.783680 1.728373 3.052434 -8.413911 2.448060 7.861847 4.504020 5.445686 1.751475 -11.070756 -15.508476 -87.170585 -53.866916 131.628569 6.339531 1.031984 -4.854705 -11.143692 0.801578 -2.263919 -5.265830 -7.417733 21.615404 97.059543 -66.226022 -130.063603 6.733917 3.262285 -10.202198 3.091721 -15.242178 -5.864788 -1.242447 60.908938 -5.058878 1.692328 -6.826463 10.404807 0.179646 -0.476137 0.081273 -3.465108 -12.473119 2.540060 25.843960 76.726620 26.278482 0.537572 -11.768766 -3.721932 0.209391 0.595410 0.096266
